HIERARCHY
ROOT Hips
{
  OFFSET 57.8838 95.319 338.509
  CHANNELS 6 Xposition Yposition Zposition Zrotation Xrotation Yrotation
  JOINT LeftUpLeg
  {
    OFFSET 8.64259 1.95398 -2.38835
    CHANNELS 3 Zrotation Xrotation Yrotation
    JOINT LeftLeg
    {
      OFFSET 43.7702 0 0
      CHANNELS 3 Zrotation Xrotation Yrotation
      JOINT LeftFoot
      {
        OFFSET 40.6238 0 0
        CHANNELS 3 Zrotation Xrotation Yrotation
        JOINT LeftToeBase
        {
          OFFSET 12.7242 0 0
          CHANNELS 3 Zrotation Xrotation Yrotation
          End Site
          {
            OFFSET 0 0 0
          }
        }
      }
    }
  }
  JOINT RightUpLeg
  {
    OFFSET -8.2249 1.95398 -2.59336
    CHANNELS 3 Zrotation Xrotation Yrotation
    JOINT RightLeg
    {
      OFFSET 43.5653 0 0
      CHANNELS 3 Zrotation Xrotation Yrotation
      JOINT RightFoot
      {
        OFFSET 40.6238 0 0
        CHANNELS 3 Zrotation Xrotation Yrotation
        JOINT RightToeBase
        {
          OFFSET 12.7242 0 0
          CHANNELS 3 Zrotation Xrotation Yrotation
          End Site
          {
            OFFSET 0 0 0
          }
        }
      }
    }
  }
  JOINT Spine
  {
    OFFSET 0.165834 0.87714 6.61349
    CHANNELS 3 Zrotation Xrotation Yrotation
    JOINT Spine1
    {
      OFFSET 7.38963 1.71661e-005 0
      CHANNELS 3 Zrotation Xrotation Yrotation
      JOINT Spine2
      {
        OFFSET 11.9445 1.14441e-005 0
        CHANNELS 3 Zrotation Xrotation Yrotation
        JOINT Spine3
        {
          OFFSET 14.7254 4.19617e-005 0
          CHANNELS 3 Zrotation Xrotation Yrotation
          JOINT Spine4
          {
            OFFSET 10.9679 0 0
            CHANNELS 3 Zrotation Xrotation Yrotation
            JOINT RightShoulder
            {
              OFFSET 2.46616 -1.6653 3.69651
              CHANNELS 3 Zrotation Xrotation Yrotation
              JOINT RightArm
              {
                OFFSET 13.0012 0 0
                CHANNELS 3 Zrotation Xrotation Yrotation
                JOINT RightForeArm
                {
                  OFFSET 28.7848 1.62311e-005 0
                  CHANNELS 3 Zrotation Xrotation Yrotation
                  JOINT RightHand
                  {
                    OFFSET 26.5688 1.62095e-005 0
                    CHANNELS 3 Zrotation Xrotation Yrotation
                    End Site
                    {
                      OFFSET 0 0 0
                    }
                  }
                }
              }
            }
            JOINT LeftShoulder
            {
              OFFSET 2.38034 -1.29275 -3.7523
              CHANNELS 3 Zrotation Xrotation Yrotation
              JOINT LeftArm
              {
                OFFSET 16.3182 6.07031e-005 0
                CHANNELS 3 Zrotation Xrotation Yrotation
                JOINT LeftForeArm
                {
                  OFFSET 27.0901 0 0
                  CHANNELS 3 Zrotation Xrotation Yrotation
                  JOINT LeftHand
                  {
                    OFFSET 24.5451 1.51738e-005 0
                    CHANNELS 3 Zrotation Xrotation Yrotation
                    End Site
                    {
                      OFFSET 0 0 0
                    }
                  }
                }
              }
            }
            JOINT Neck
            {
              OFFSET 5.0226 -0.0266342 0
              CHANNELS 3 Zrotation Xrotation Yrotation
              JOINT Head
              {
                OFFSET 6.69364 2.86102e-005 0
                CHANNELS 3 Zrotation Xrotation Yrotation
                End Site
                {
                  OFFSET 0 0 0
                }
              }
            }
          }
        }
      }
    }
  }
}
MOTION
Frames:	12
Frame Time:	0.0416667
80.4149 86.0569 97.1181 92.8714 -40.239 98.3323 -168.497 15.8032 95.8976 -121.309 2.22849 6.65554 51.4293 -3.91339 13.5517 43.6081 6.99807 10.6444 166.623 24.6819 108.448 -55.146 -15.6722 6.63914 67.0186 -15.7312 -11.7821 35.9175 -9.11562 1.87791 -0.252758 8.41248 -91.5561 10.0202 -1.21139 -2.98444 -1.65357 -1.3415 -2.9283 -24.1611 -0.259024 -3.21031 -4.14846 -0.259047 -3.21032 97.24 -50.3988 -89.6114 23.7762 -18.0938 4.70196 -5.65265 4.05089 -60.6352 -14.7611 -0.763384 0.880971 -81.804 -56.4499 91.5257 -8.80015 0.876527 0.670161 6.42136 21.4892 -49.8458 16.2771 -2.05427 -16.3055 39.3473 1.89263 -10.0474 -25.2083 3.37239 16.2559 
104.28 89.1831 120.585 91.9827 -44.677 94.4167 -173.083 39.3679 82.3908 -99.8715 -0.0132127 5.68711 54.4021 -1.90066 12.2785 43.9571 7.35904 12.5593 171.933 3.23444 90.9031 -44.9932 -14.105 2.3824 70.1347 -3.28713 3.94276 35.1479 -8.99847 -4.22083 0.68077 8.05355 -90.9012 10.7896 0.938997 -1.90015 -0.882415 0.854465 -1.93961 -23.4136 1.4667 -1.53021 -3.401 1.46671 -1.53021 97.3154 -48.126 -89.7168 21.9437 -22.4679 -4.05565 -9.18097 10.089 -78.4588 -10.5775 -0.531289 0.785063 -81.6693 -54.8024 91.608 -9.13316 -3.98656 11.4217 -2.10278 37.7402 -27.541 19.2118 -2.27701 -15.795 33.0331 -0.149662 -8.94518 -23.572 1.32421 12.5072 
128.306 94.855 145.061 88.8833 -48.6976 90.1627 178.303 42.0437 88.2081 -48.0908 9.32513 1.15285 52.0439 -6.03578 7.74269 41.6569 5.99773 10.696 174.319 -17.936 93.8319 -36.6187 -16.5517 -2.48776 55.4472 12.5213 12.0242 24.8902 6.30116 -7.5796 1.45618 7.26861 -90.2351 12.3488 2.78192 -0.787657 0.680483 2.74458 -0.909413 -21.8782 2.88994 0.0855192 -1.86558 2.88994 0.0855137 98.5809 -46.6372 -87.8152 26.8145 -31.2712 3.17822 -11.415 17.0399 -95.8944 -12.0019 -1.23288 6.71489 -82.4071 -50.4389 90.1934 -7.68496 -1.6726 27.8592 -1.75061 43.3877 -29.4213 17.8774 -2.26223 -16.4935 19.5283 -1.61287 -2.72864 -16.5936 -0.942451 1.83031 
150.421 95.3684 167.504 96.0963 -51.3125 97.4687 177.748 31.5506 92.0004 -14.014 5.07583 -0.951314 44.9339 -16.3364 0.956047 35.2581 2.67529 10.0703 176.543 -18.8373 93.0668 -72.968 -17.4786 -4.37422 53.4965 11.6009 6.4401 23.3445 7.1743 0.455132 1.45136 7.81046 -90.23 11.2645 2.78131 -0.733443 -0.403749 2.74634 -0.85523 -22.9628 2.87304 0.137054 -2.9502 2.87305 0.137053 98.0033 -46.1037 -88.8018 31.4008 -33.9897 8.73047 -17.8526 18.7775 -93.9749 -8.81506 -0.601653 2.91097 -82.3106 -48.4353 90.1725 -10.9839 -2.12604 34.0819 0.287392 39.2008 -33.4024 16.1592 -2.13688 -16.8652 20.2898 -0.602493 -3.23527 -16.3603 0.122713 2.53649 
172.619 90.3629 189.386 101.861 -45.7523 98.8744 -176.989 27.021 83.0712 -37.0666 18.0975 -2.94128 53.8741 -5.06714 13.4474 32.2447 1.43804 0.577162 168.418 -2.77834 90.0384 -110.54 -13.9244 -3.05233 54.8657 6.97484 -1.82268 25.5729 5.07466 -6.30549 0.558546 8.42132 -89.7346 10.0367 1.23388 0.434665 -1.63355 1.25183 0.379923 -24.1723 1.04614 0.785407 -4.15961 1.04616 0.785413 98.5557 -48.1088 -87.7446 36.3784 -26.2367 17.0981 -17.7895 12.1175 -78.0408 -14.2527 -0.669156 0.206852 -81.2822 -49.8997 91.8488 -7.85773 -3.9625 18.2199 1.99161 35.2512 -33.8207 15.8933 -2.12946 -17.0516 30.0754 1.24862 -1.79735 -27.1967 3.06927 -4.66208 
193.886 86.4763 210.557 102.953 -38.3967 95.7327 -177.291 9.00569 74.1706 -57.9238 25.9305 0.259741 60.8832 12.7528 27.4206 55.5197 12.7002 8.29369 166.689 26.4598 89.6726 -115.913 -12.4032 -3.15278 57.3901 4.28233 -1.90166 29.033 -0.143218 -6.0772 -0.647765 8.65991 -89.1255 9.55216 -0.896865 1.8026 -2.11988 -0.816696 1.84031 -24.6501 -1.39707 1.44983 -4.63742 -1.39707 1.44982 98.5426 -51.1727 -87.5346 36.4595 -20.6412 20.2492 -13.656 -3.58584 -52.416 -16.6965 -0.713255 -0.185459 -80.9604 -52.7785 92.5101 -7.69281 -10.1253 -9.94638 1.98763 27.6462 -32.3185 19.6425 -2.26886 -15.4546 36.1169 2.16505 2.00155 -32.2687 4.48357 -12.3078 
217.483 92.1233 233.118 102.27 -30.8794 101.543 -173.242 -9.40614 96.1101 -45.7953 23.1448 5.97991 56.9278 -5.19057 3.02761 48.5193 9.72669 10.7748 166.584 32.1835 95.6262 -72.4616 -11.3034 1.24601 61.0296 1.49907 2.96974 31.457 -3.73605 -6.53528 -1.69018 8.26489 -89.9873 10.3508 -3.36194 0.365464 -1.31623 -3.34258 0.513219 -23.8834 -3.31639 -0.662966 -3.87072 -3.31638 -0.662967 95.2943 -49.178 -92.8103 42.5242 -21.3248 29.2433 -9.76632 -10.0412 -33.4606 -12.8787 -0.146596 -4.16169 -81.6447 -51.8256 91.4395 -9.55448 -1.23844 -14.9173 2.40735 12.8835 -56.2819 20.7304 -3.79763 -22.4939 23.5639 2.44371 12.4425 -17.3746 0.626423 -19.3391 
244.088 93.6884 255.118 119.509 -25.6886 129.378 -142.623 -33.1652 134.299 -44.7876 27.1582 12.4843 49.6818 -9.08106 -1.92422 76.6884 19.2255 -1.64636 176.083 7.5684 108.352 -20.3177 -0.845491 5.19164 54.22 14.8837 15.5289 30.8538 -3.02365 -18.8941 -1.61822 10.2704 -91.6538 6.26807 -3.93173 -3.12353 -5.40028 -4.06534 -2.94743 -27.9329 -2.81207 -4.16002 -7.92031 -2.81207 -4.16002 85.6591 -51.4239 -106.998 40.3891 -11.8748 37.9879 -8.41407 -12.5684 -29.2316 -10.8859 -0.121119 -4.04766 -78.7077 -49.4712 95.7558 0.356522 9.47931 -8.39335 8.59001 -3.02759 -88.87 11.6971 -1.97345 -19.5412 37.2019 7.06963 18.1721 -33.7844 6.16947 -28.0719 
262.237 87.2853 272.474 124.175 -24.4444 129.227 -136.784 -44.3546 145.831 -51.2733 11.4326 8.9487 42.9841 -8.2512 -22.7545 134.19 0.525954 -46.537 173.282 8.64322 105.999 -18.5823 -2.0009 4.69256 60.1863 6.26284 24.7626 20.8759 33.26 -45.776 -2.70225 10.6501 -91.1439 5.51353 -5.87537 -2.11178 -6.1454 -5.96258 -1.85037 -28.7488 -4.969 -3.78281 -8.7361 -4.96903 -3.78281 69.0784 -52.511 -130.247 32.0484 -4.4969 47.6625 -11.2231 -12.6901 -33.9831 -5.48488 -0.0625607 -3.94581 -73.02 -59.248 103.776 9.11823 -0.932196 10.8008 8.69222 -4.2975 -102.666 16.4391 -1.82023 -15.2154 54.2117 19.0178 25.772 -55.5566 21.474 -40.6406 
276.935 79.0503 286.333 130.803 -20.8632 136.264 -108.684 -48.8822 179.042 -37.6941 -41.1367 15.153 24.8576 -17.0846 -51.2067 133.073 -26.8118 -67.6881 169.288 0.355599 111.324 -6.52983 -43.6924 2.77357 58.6211 -2.53866 11.3959 154.357 58.658 142.786 -3.22873 11.5826 -91.5112 3.58661 -7.04988 -2.987 -8.06799 -7.17444 -2.6726 -30.6878 -5.82661 -4.97145 -10.6751 -5.8266 -4.97144 56.8149 -51.7928 -146.878 21.1477 1.94201 62.8232 -53.2029 -24.1431 -68.0936 -1.18755 0.164839 -15.5748 -57.1724 -79.6295 120.024 22.1839 -18.1502 25.5555 7.9196 8.55954 -68.9932 12.4917 -1.61899 -17.0186 69.159 27.9844 25.4497 -74.317 33.5002 -40.1297 
288.206 79.0698 297.523 147.731 -14.1506 139.172 -61.2719 -31.0972 -131.139 154.181 -80.9038 161.947 17.5607 -16.3483 -47.7246 130.368 -30.0408 -73.3752 160.621 -15.7422 104.422 65.9922 -89.4292 69.7653 64.2718 25.6469 -13.5525 -157.232 46.665 109.398 -3.30763 12.6244 -90.4076 1.60465 -6.76118 -0.978258 -10.0483 -6.79765 -0.678372 -32.7069 -6.15327 -2.97226 -12.6942 -6.15326 -2.97227 58.3386 -42.9925 -150.808 23.4833 9.99897 65.9095 -142.843 -22.8963 -110.356 -5.56015 -0.113891 -5.57377 -63.6676 -79.1713 112.945 13.6652 -17.2196 37.8958 -1.29991 18.3458 -33.9299 15.8503 -1.25462 -11.4618 39.0563 36.7767 50.6816 -33.131 35.6434 -81.5858 
302.467 81.4635 311.742 164.692 -10.3804 147.238 -40.8436 -15.013 -116.974 179.688 -74.4958 179.83 21.0776 -18.3559 -41.9018 128.985 -24.1122 -68.5897 150.111 -31.7845 96.5443 177.351 -85.0182 -179.628 63.3019 27.5567 -3.87687 -179.913 57.3615 123.444 -2.53771 13.405 -89.7426 0.0574381 -4.96483 0.262218 -11.6041 -4.94846 0.481019 -34.2124 -4.81356 -1.2456 -14.1997 -4.81355 -1.2456 62.3338 -32.5658 -153.15 31.08 17.777 65.1868 -167.181 -12.9808 -116.695 -8.48334 -1.60013 17.4946 -77.3134 -78.631 97.7781 11.3701 -12.673 56.3941 -1.20805 26.4982 -29.0428 11.588 -1.3324 -14.4872 -1.89277 31.1949 82.8478 1.88192 14.9166 -104.658 
